<svg xmlns="http://www.w3.org/2000/svg" width="24" height="24" viewBox="0 0 24 24"><g><g><path fill="#343434" d="M20.493 23.988h-5.995a.51.51 0 0 1-.5-.521V16.69h-3.997v6.777a.51.51 0 0 1-.5.521H3.508a.51.51 0 0 1-.5-.521V13.04a.51.51 0 0 1 .5-.522c.276 0 .5.234.5.522v9.904h4.995V16.17a.51.51 0 0 1 .5-.521h4.996c.276 0 .5.233.5.521v6.776h4.996v-9.383a.51.51 0 0 1 .5-.521c.275 0 .499.234.499.521v9.905a.51.51 0 0 1-.5.521zm2.998-10.947a.488.488 0 0 1-.353-.152L12 1.268.862 12.888a.485.485 0 0 1-.706 0 .537.537 0 0 1 0-.737L11.646.161a.485.485 0 0 1 .707 0l11.491 11.99a.537.537 0 0 1 0 .738.488.488 0 0 1-.353.152zm-3.997-7.298a.51.51 0 0 1-.5-.521V2.094h-2.997a.51.51 0 0 1-.5-.521.51.51 0 0 1 .5-.521h3.497c.276 0 .5.233.5.521v3.649a.51.51 0 0 1-.5.521z"/></g></g></svg>