<svg xmlns="http://www.w3.org/2000/svg" width="90" height="90" viewBox="0 0 90 90"><g><g><path fill="#07329a" d="M45 0c24.853 0 45 20.147 45 45S69.853 90 45 90 0 69.853 0 45 20.147 0 45 0z"/></g><g><path fill="#fff" d="M40.709 58.271c0 .649-.521 1.175-1.163 1.175h-4.407a1.169 1.169 0 0 1-1.162-1.175c0-.649.52-1.174 1.162-1.174h4.407c.642 0 1.163.525 1.163 1.174zm6.288-23.373c0-.648.52-1.174 1.163-1.174h4.407c.642 0 1.162.526 1.162 1.174 0 .649-.52 1.174-1.162 1.174H48.16a1.168 1.168 0 0 1-1.163-1.174zm0 4.974c0-.648.52-1.174 1.163-1.174h4.407c.642 0 1.162.526 1.162 1.174 0 .65-.52 1.175-1.162 1.175H48.16a1.168 1.168 0 0 1-1.163-1.175zm-2.724 4.923c0 .648-.52 1.174-1.162 1.174h-7.972a1.168 1.168 0 0 1-1.162-1.174c0-.649.52-1.175 1.162-1.175h7.972c.642 0 1.162.526 1.162 1.175zm-.075 8.527c0 .648-.52 1.174-1.163 1.174H35.14a1.168 1.168 0 0 1-1.162-1.174c0-.649.52-1.175 1.162-1.175h7.896c.642 0 1.163.526 1.163 1.175zM64 53.958v7.662c0 4.62-3.722 8.38-8.296 8.38a8.218 8.218 0 0 1-5.617-2.219H28.163A1.168 1.168 0 0 1 27 66.607v-45.43c0-.648.52-1.174 1.163-1.174h23.4c.3-.004.6.115.823.337l.003.002.001.002h.001c0 .002.002.002.003.003l7.971 8.053.003.002v.001l.002.002a1.177 1.177 0 0 1 .315.603v.003c.015.076.022.152.02.23v23.207c.788.095 1.569.214 2.34.355.553.101.955.588.955 1.155zM52.734 28.056h4.003l-4.003-4.043zM47.41 61.62v-7.662c0-.567.402-1.054.955-1.155a40.913 40.913 0 0 1 7.34-.656c.896 0 1.79.029 2.677.085V30.405h-6.81a1.168 1.168 0 0 1-1.162-1.175v-6.878H29.325v43.08h18.993a8.397 8.397 0 0 1-.91-3.812zm14.266-6.668a38.85 38.85 0 0 0-5.971-.456c-2.021 0-4.025.153-5.97.456v6.668c0 3.325 2.678 6.03 5.97 6.03s5.97-2.705 5.97-6.03zm-5.97 1.74c.641 0 1.162.525 1.162 1.174V59.9h2.012c.643 0 1.163.526 1.163 1.174 0 .65-.52 1.175-1.163 1.175h-2.012v2.033c0 .648-.52 1.174-1.163 1.174a1.169 1.169 0 0 1-1.162-1.174v-2.033h-2.013a1.168 1.168 0 0 1-1.162-1.175c0-.648.52-1.174 1.162-1.174h2.013v-2.033c0-.649.52-1.175 1.162-1.175zM48.16 45.968a1.168 1.168 0 0 1-1.163-1.174c0-.649.52-1.175 1.163-1.175h4.407c.642 0 1.162.526 1.162 1.175 0 .648-.52 1.174-1.162 1.174zm-3.887-6.097c0 .65-.52 1.175-1.162 1.175h-7.972a1.168 1.168 0 0 1-1.162-1.175c0-.648.52-1.174 1.162-1.174h7.972c.642 0 1.162.526 1.162 1.174zm0-4.974c0 .649-.52 1.174-1.162 1.174h-7.972a1.168 1.168 0 0 1-1.162-1.174c0-.648.52-1.174 1.162-1.174h7.972c.642 0 1.162.526 1.162 1.174z"/></g></g></svg>