<svg xmlns="http://www.w3.org/2000/svg" width="90" height="90" viewBox="0 0 90 90"><g><g><path fill="#07329a" d="M45 0c24.853 0 45 20.147 45 45S69.853 90 45 90 0 69.853 0 45 20.147 0 45 0z"/></g><g><path fill="#fff" d="M62.272 39.936c-.17.446-.23.933-.172 1.406l.149 1.215a5.255 5.255 0 0 1-1.752 4.585l-.922.81c-.36.317-.64.72-.811 1.167l-.437 1.144a5.287 5.287 0 0 1-2.456 2.776l4.814 11.657c.177.429.079.922-.25 1.251-.327.33-.823.434-1.257.263l-5.31-2.083-2.307 5.183c-.187.42-.605.69-1.066.69h-.016a1.165 1.165 0 0 1-1.063-.719l-4.875-11.805-4.875 11.805c-.178.43-.596.713-1.063.718h-.016c-.46 0-.88-.269-1.066-.689l-2.308-5.183-5.31 2.083a1.17 1.17 0 0 1-1.257-.263 1.15 1.15 0 0 1-.249-1.251l4.814-11.657a5.286 5.286 0 0 1-2.456-2.776l-.437-1.144a2.97 2.97 0 0 0-.811-1.166l-.922-.811a5.255 5.255 0 0 1-1.752-4.585l.148-1.214a2.953 2.953 0 0 0-.172-1.407l-.437-1.144a5.244 5.244 0 0 1 .596-4.867l.7-1.007a2.96 2.96 0 0 0 .506-1.325l.149-1.214a5.276 5.276 0 0 1 2.806-4.036l1.09-.568a2.99 2.99 0 0 0 1.07-.94l.7-1.007a5.326 5.326 0 0 1 4.373-2.279h1.232c.481 0 .96-.117 1.386-.339l1.091-.568a5.35 5.35 0 0 1 4.94 0l1.09.568c.427.222.906.34 1.387.34h1.232c1.747 0 3.382.851 4.374 2.278l.7 1.007a2.99 2.99 0 0 0 1.068.94l1.091.568a5.275 5.275 0 0 1 2.806 4.036l.149 1.214c.058.474.233.932.506 1.325l.7 1.007a5.243 5.243 0 0 1 .596 4.867zm-2.337 2.9l-.149-1.214a5.266 5.266 0 0 1 .307-2.507l.437-1.143a2.943 2.943 0 0 0-.334-2.733l-.7-1.006a5.27 5.27 0 0 1-.902-2.361l-.149-1.214a2.961 2.961 0 0 0-1.575-2.266l-1.09-.568a5.325 5.325 0 0 1-1.905-1.674l-.7-1.007a2.99 2.99 0 0 0-2.455-1.28h-1.232c-.857 0-1.71-.208-2.47-.604l-1.09-.568a3.002 3.002 0 0 0-2.773 0l-1.091.568a5.363 5.363 0 0 1-2.47.605h-1.232a2.99 2.99 0 0 0-2.455 1.279l-.7 1.007a5.325 5.325 0 0 1-1.904 1.674l-1.09.568a2.962 2.962 0 0 0-1.576 2.266l-.148 1.214a5.274 5.274 0 0 1-.903 2.361l-.7 1.006a2.943 2.943 0 0 0-.334 2.733l.437 1.143c.304.796.41 1.663.307 2.507l-.149 1.214c-.118.966.25 1.929.983 2.574l.923.811a5.29 5.29 0 0 1 1.445 2.078l.437 1.144a2.977 2.977 0 0 0 2.075 1.825l1.197.292c.831.204 1.61.61 2.252 1.174l.922.81c.734.646 1.74.893 2.692.66l1.196-.293a5.369 5.369 0 0 1 2.544 0l1.196.292a3 3 0 0 0 2.692-.658l.923-.811a5.348 5.348 0 0 1 2.252-1.174l1.196-.292a2.977 2.977 0 0 0 2.076-1.825l.437-1.144a5.29 5.29 0 0 1 1.444-2.078l.923-.811a2.95 2.95 0 0 0 .983-2.574zM57.49 63.06l-3.842-9.305-.214.052a3.003 3.003 0 0 0-1.265.659l-.922.811a5.339 5.339 0 0 1-4.592 1.217l3.88 9.396 1.655-3.715a1.168 1.168 0 0 1 1.495-.608zm-18.943 2.83l3.88-9.396a5.335 5.335 0 0 1-4.592-1.217l-.922-.811a3.003 3.003 0 0 0-1.264-.659l-.214-.052-3.843 9.305 3.806-1.493a1.169 1.169 0 0 1 1.494.608zm-6.788-27.57c0-6.996 5.734-12.688 12.782-12.688s12.783 5.692 12.783 12.689c0 6.996-5.735 12.689-12.783 12.689-7.048 0-12.782-5.693-12.782-12.69zm2.33 0c0 5.722 4.69 10.376 10.452 10.376 5.763 0 10.452-4.654 10.452-10.375 0-5.72-4.69-10.375-10.452-10.375-5.763 0-10.451 4.654-10.451 10.375zm3.85 5.463V36.93c0-.364.171-.706.463-.924l5.438-4.07a1.172 1.172 0 0 1 1.403 0l5.438 4.07c.292.218.463.56.463.924v6.853c0 .639-.521 1.157-1.165 1.157H39.104a1.161 1.161 0 0 1-1.166-1.157zm2.33-1.157h3.029v-2.302c0-.302.246-.547.55-.547h1.386c.304 0 .55.245.55.547v2.302h3.029v-5.12l-4.272-3.198-4.272 3.198z"/></g></g></svg>