<svg xmlns="http://www.w3.org/2000/svg" width="90" height="90" viewBox="0 0 90 90"><g><g><path fill="#07329a" d="M45 0c24.853 0 45 20.147 45 45S69.853 90 45 90 0 69.853 0 45 20.147 0 45 0z"/></g><g><path fill="#fff" d="M30.85 39.14a.976.976 0 1 1-1.952 0 .976.976 0 0 1 1.952 0zm23.4 1.953v5.86c0 .539-.437.976-.975.976H48.4v4.883c0 .54-.437.976-.975.976h-5.85a.976.976 0 0 1-.975-.976v-4.883h-4.875a.976.976 0 0 1-.975-.976v-5.86c0-.54.437-.976.975-.976H40.6v-4.883c0-.54.437-.977.975-.977h5.85c.538 0 .975.438.975.977v4.883h4.875c.538 0 .975.437.975.976zm-1.95.977h-4.875a.976.976 0 0 1-.975-.977V36.21h-3.9v4.883c0 .54-.437.977-.975.977H36.7v3.906h4.875c.538 0 .975.437.975.977v4.882h3.9v-4.882c0-.54.437-.977.975-.977H52.3zM64 25.499v19.918c0 4.43-1.419 8.76-3.995 12.191-6.374 8.487-14.767 12.16-15.12 12.313a.978.978 0 0 1-.77 0c-.354-.153-8.746-3.826-15.12-12.314C26.42 54.177 25 49.848 25 45.417V25.498c0-2.274 2.52-3.75 4.448-2.496a9.704 9.704 0 0 0 5.302 1.569 9.727 9.727 0 0 0 7.474-3.495A2.97 2.97 0 0 1 44.5 20c.873 0 1.703.392 2.276 1.076a9.728 9.728 0 0 0 7.474 3.495c1.89 0 3.723-.543 5.301-1.57C61.48 21.749 64 23.225 64 25.5zm-1.95 19.918V25.5c0-.756-.83-1.255-1.437-.86a11.644 11.644 0 0 1-6.363 1.885 11.673 11.673 0 0 1-8.968-4.193 1.011 1.011 0 0 0-.782-.378c-.3 0-.578.134-.782.378a11.672 11.672 0 0 1-8.968 4.193c-2.267 0-4.468-.652-6.364-1.884-.617-.402-1.436.115-1.436.859v19.918c0 4.01 1.28 7.922 3.604 11.016 5.312 7.075 12.25 10.7 13.945 11.514 1.695-.816 8.647-4.455 13.947-11.513 2.324-3.095 3.604-7.007 3.604-11.017zM60.1 28.612v16.805c0 3.59-1.141 7.085-3.213 9.841-4.137 5.51-9.239 8.789-11.912 10.252a.972.972 0 0 1-.937-.002c-2.694-1.484-7.825-4.79-11.925-10.249-2.072-2.757-3.213-6.252-3.213-9.842v-2.37a.976.976 0 1 1 1.95 0v2.37c0 3.169 1.002 6.247 2.82 8.668 3.657 4.868 8.188 7.932 10.84 9.449 2.63-1.497 7.132-4.539 10.82-9.45 1.819-2.42 2.82-5.497 2.82-8.667V29.932c-1.273.33-2.58.499-3.9.499a15.577 15.577 0 0 1-9.75-3.437 15.576 15.576 0 0 1-9.75 3.437c-1.32 0-2.627-.168-3.9-.499v5.302a.976.976 0 1 1-1.95 0v-6.622a.977.977 0 0 1 1.301-.92 13.55 13.55 0 0 0 4.55.785c3.35 0 6.583-1.24 9.1-3.49a.974.974 0 0 1 1.298 0 13.646 13.646 0 0 0 9.101 3.49 13.55 13.55 0 0 0 4.549-.786.975.975 0 0 1 1.301.92z"/></g></g></svg>