<svg 
 xmlns="http://www.w3.org/2000/svg"
 xmlns:xlink="http://www.w3.org/1999/xlink"
 width="19px" height="25px">
<path fill-rule="evenodd"  fill="#07329a"
 d="M4.640,8.651 C5.281,9.020 6.000,9.204 6.718,9.204 C7.437,9.204 8.156,9.020 8.797,8.651 C10.322,7.775 11.149,6.041 11.066,3.895 C10.975,1.529 9.131,0.276 7.282,0.019 C7.100,-0.006 6.389,-0.010 6.234,0.009 C4.358,0.240 2.463,1.496 2.371,3.895 C2.288,6.041 3.115,7.775 4.640,8.651 ZM6.718,1.130 C7.736,1.169 8.770,1.580 9.365,2.404 C7.688,3.135 5.603,3.608 3.582,3.717 C3.764,2.008 5.259,1.187 6.718,1.130 ZM9.819,3.475 C9.847,3.622 9.865,3.776 9.871,3.938 C9.937,5.648 9.323,7.003 8.186,7.657 C7.281,8.177 6.156,8.177 5.251,7.657 C4.331,7.128 3.753,6.139 3.601,4.875 C5.764,4.763 8.004,4.258 9.819,3.475 ZM18.459,18.974 C17.454,18.862 16.581,18.442 16.132,17.849 C16.020,17.700 15.838,17.612 15.647,17.612 C15.456,17.612 15.275,17.700 15.163,17.849 C14.715,18.442 13.842,18.862 12.836,18.974 C12.534,19.007 12.301,19.255 12.301,19.549 L12.301,20.831 C12.301,22.768 13.610,24.474 15.478,24.978 C15.531,24.993 15.587,25.000 15.642,25.000 C15.696,25.000 15.762,24.993 15.815,24.978 C17.683,24.474 19.000,22.768 19.000,20.831 L19.000,19.549 C19.000,19.255 18.761,19.007 18.459,18.974 ZM17.804,20.831 C17.804,22.194 16.917,23.398 15.650,23.816 C14.384,23.398 13.497,22.194 13.497,20.831 L13.497,20.039 C14.335,19.867 15.095,19.516 15.650,19.041 C16.206,19.516 16.966,19.867 17.804,20.039 L17.804,20.831 L17.804,20.831 ZM9.306,12.229 L8.210,13.555 C8.004,13.804 7.628,13.845 7.370,13.645 C7.112,13.446 7.070,13.082 7.276,12.832 L8.170,11.749 C7.273,11.502 6.256,11.487 5.296,11.743 L6.196,12.832 C6.402,13.082 6.360,13.446 6.102,13.646 C5.844,13.845 5.467,13.805 5.261,13.555 L4.155,12.216 C3.320,12.711 2.770,13.455 2.598,14.356 L1.319,21.035 L6.087,21.035 C6.418,21.035 6.685,21.294 6.685,21.613 C6.685,21.933 6.418,22.192 6.087,22.192 L0.600,22.192 C0.423,22.192 0.254,22.114 0.140,21.982 C0.027,21.850 -0.020,21.675 0.012,21.506 L1.422,14.144 C1.747,12.444 3.024,11.167 4.926,10.642 C5.954,10.358 7.102,10.327 8.157,10.555 C9.290,10.800 10.255,11.317 10.948,12.052 C11.170,12.288 11.153,12.654 10.909,12.870 C10.665,13.085 10.287,13.068 10.064,12.832 C9.846,12.602 9.590,12.400 9.306,12.229 ZM11.707,23.349 C11.707,23.669 11.439,23.928 11.109,23.928 L9.325,23.928 C8.995,23.928 8.712,23.640 8.712,23.321 L8.712,15.358 C8.712,15.038 8.995,14.786 9.325,14.786 L15.669,14.786 C15.999,14.786 16.249,15.038 16.249,15.358 L16.249,16.043 C16.249,16.363 15.981,16.622 15.650,16.622 C15.320,16.622 15.052,16.363 15.052,16.043 L15.052,15.943 L9.908,15.943 L9.908,22.771 L11.109,22.771 C11.440,22.771 11.707,23.030 11.707,23.349 Z"/>
</svg>