<svg 
 xmlns="http://www.w3.org/2000/svg"
 xmlns:xlink="http://www.w3.org/1999/xlink"
 width="29px" height="29px">
<path fill-rule="evenodd"  fill="rgb(0, 0, 0)"
 d="M28.727,14.306 L26.821,15.436 C26.729,15.491 26.625,15.518 26.523,15.518 C26.376,15.518 26.230,15.463 26.119,15.357 L25.248,14.522 L25.248,28.433 C25.248,28.746 24.990,29.000 24.671,29.000 L4.329,29.000 C4.010,29.000 3.752,28.746 3.752,28.433 L3.752,14.522 L2.881,15.357 C2.692,15.537 2.404,15.570 2.179,15.436 L0.272,14.306 C0.119,14.215 0.018,14.060 -0.003,13.885 C-0.023,13.710 0.041,13.537 0.169,13.414 L14.098,0.156 C14.322,-0.057 14.678,-0.057 14.902,0.156 L20.737,5.710 L20.737,3.758 C20.737,3.445 20.995,3.191 21.314,3.191 L23.720,3.191 C24.039,3.191 24.297,3.445 24.297,3.758 L24.297,9.099 L28.831,13.414 C28.959,13.537 29.023,13.710 29.002,13.885 C28.982,14.059 28.880,14.215 28.727,14.306 ZM4.906,27.867 L24.094,27.867 L24.094,13.416 L22.335,11.730 L11.527,11.730 C11.208,11.730 10.949,11.477 10.949,11.164 C10.949,10.851 11.208,10.597 11.527,10.597 L21.153,10.597 L14.500,4.221 L10.442,8.110 L14.843,8.110 C15.162,8.110 15.420,8.364 15.420,8.677 C15.420,8.989 15.162,9.243 14.843,9.243 L9.260,9.243 L4.906,13.416 L4.906,27.867 ZM23.143,4.324 L21.892,4.324 L21.892,6.809 L23.050,7.912 L23.143,8.000 L23.143,4.324 ZM14.500,1.352 L1.510,13.716 L2.393,14.240 L14.096,3.024 C14.124,2.997 14.155,2.974 14.186,2.954 C14.281,2.893 14.391,2.863 14.500,2.863 C14.609,2.863 14.718,2.893 14.813,2.954 C14.845,2.974 14.875,2.997 14.903,3.024 L26.606,14.240 L27.489,13.716 L14.500,1.352 ZM9.907,10.763 C9.934,10.789 9.958,10.818 9.979,10.849 C10.000,10.880 10.018,10.913 10.032,10.948 C10.046,10.981 10.057,11.017 10.065,11.053 C10.072,11.090 10.076,11.127 10.076,11.164 C10.076,11.201 10.072,11.238 10.065,11.275 C10.057,11.310 10.046,11.346 10.032,11.381 C10.018,11.415 10.000,11.448 9.979,11.478 C9.958,11.509 9.934,11.538 9.907,11.564 C9.799,11.670 9.651,11.730 9.499,11.730 C9.461,11.730 9.424,11.727 9.386,11.720 C9.349,11.712 9.313,11.701 9.278,11.687 C9.243,11.673 9.210,11.655 9.178,11.635 C9.147,11.614 9.117,11.590 9.090,11.564 C9.064,11.538 9.040,11.509 9.019,11.478 C8.998,11.448 8.980,11.415 8.966,11.381 C8.951,11.346 8.940,11.310 8.933,11.275 C8.925,11.238 8.921,11.201 8.921,11.164 C8.921,11.127 8.925,11.090 8.933,11.053 C8.940,11.017 8.951,10.981 8.966,10.948 C8.980,10.913 8.998,10.880 9.019,10.849 C9.040,10.818 9.064,10.789 9.090,10.763 C9.198,10.658 9.347,10.597 9.499,10.597 C9.651,10.597 9.799,10.658 9.907,10.763 ZM9.208,14.345 C9.646,14.542 10.115,14.642 10.602,14.642 C11.750,14.642 12.805,14.073 13.423,13.121 C13.529,12.958 13.713,12.859 13.910,12.859 L15.090,12.859 C15.287,12.859 15.470,12.958 15.576,13.121 C16.195,14.073 17.250,14.642 18.398,14.642 C18.884,14.642 19.353,14.542 19.792,14.345 C19.971,14.264 20.179,14.278 20.344,14.383 C20.510,14.487 20.610,14.666 20.610,14.859 L20.610,21.072 C20.610,22.513 19.600,23.969 17.607,25.400 C16.192,26.416 14.797,27.043 14.739,27.069 C14.663,27.103 14.581,27.120 14.500,27.120 C14.418,27.120 14.337,27.103 14.261,27.069 C14.202,27.043 12.807,26.416 11.392,25.400 C9.400,23.969 8.390,22.513 8.390,21.072 L8.390,14.859 C8.390,14.666 8.490,14.487 8.655,14.383 C8.821,14.278 9.029,14.264 9.208,14.345 ZM9.544,21.072 C9.544,23.135 12.920,25.174 14.500,25.927 C16.079,25.172 19.455,23.131 19.455,21.072 L19.455,15.653 C19.112,15.734 18.758,15.775 18.398,15.775 C16.962,15.775 15.635,15.114 14.786,13.992 L14.213,13.992 C13.365,15.114 12.038,15.775 10.602,15.775 C10.241,15.775 9.888,15.734 9.544,15.653 L9.544,21.072 ZM11.221,16.882 C12.292,16.767 13.301,16.359 14.138,15.699 C14.350,15.533 14.650,15.533 14.861,15.699 C15.699,16.359 16.708,16.767 17.779,16.882 C18.072,16.913 18.294,17.156 18.294,17.445 L18.294,21.072 C18.294,21.710 17.526,22.643 16.239,23.567 C15.802,23.881 15.312,24.190 14.785,24.484 C14.697,24.534 14.598,24.558 14.500,24.558 C14.401,24.558 14.303,24.534 14.214,24.484 C13.664,24.177 13.157,23.855 12.705,23.527 C11.453,22.617 10.706,21.699 10.706,21.072 L10.706,17.445 C10.706,17.156 10.928,16.913 11.221,16.882 ZM11.860,21.046 C11.907,21.208 12.268,21.799 13.392,22.616 C13.728,22.860 14.100,23.102 14.500,23.336 C14.880,23.114 15.235,22.884 15.558,22.652 C16.721,21.817 17.092,21.212 17.140,21.046 L17.140,17.934 C16.189,17.760 15.291,17.391 14.500,16.849 C13.709,17.391 12.810,17.760 11.860,17.934 L11.860,21.046 ZM16.337,8.460 C16.352,8.426 16.370,8.393 16.391,8.362 C16.412,8.331 16.436,8.302 16.463,8.276 C16.489,8.250 16.519,8.226 16.551,8.206 C16.582,8.185 16.615,8.168 16.650,8.153 C16.685,8.139 16.721,8.129 16.758,8.121 C16.832,8.107 16.909,8.107 16.984,8.121 C17.020,8.129 17.057,8.139 17.091,8.153 C17.127,8.168 17.160,8.185 17.191,8.206 C17.223,8.226 17.252,8.250 17.279,8.276 C17.306,8.302 17.330,8.331 17.351,8.362 C17.372,8.393 17.389,8.426 17.404,8.460 C17.418,8.494 17.429,8.530 17.437,8.566 C17.444,8.602 17.448,8.640 17.448,8.676 C17.448,8.714 17.444,8.751 17.437,8.788 C17.429,8.823 17.418,8.859 17.404,8.893 C17.389,8.927 17.372,8.960 17.351,8.991 C17.330,9.022 17.306,9.051 17.279,9.077 C17.252,9.103 17.223,9.127 17.191,9.148 C17.160,9.168 17.127,9.186 17.091,9.200 C17.057,9.214 17.020,9.225 16.984,9.232 C16.947,9.240 16.908,9.243 16.871,9.243 C16.833,9.243 16.795,9.240 16.758,9.232 C16.721,9.225 16.685,9.214 16.650,9.200 C16.615,9.186 16.582,9.168 16.551,9.148 C16.519,9.127 16.489,9.103 16.463,9.077 C16.436,9.051 16.412,9.022 16.391,8.991 C16.370,8.960 16.352,8.927 16.337,8.893 C16.323,8.859 16.312,8.823 16.305,8.788 C16.297,8.751 16.294,8.714 16.294,8.676 C16.294,8.640 16.297,8.602 16.305,8.566 C16.312,8.530 16.323,8.494 16.337,8.460 Z"/>
</svg>