<svg 
 xmlns="http://www.w3.org/2000/svg"
 xmlns:xlink="http://www.w3.org/1999/xlink"
 width="26px" height="29px">
<path fill-rule="evenodd"  fill="#07329a"
 d="M21.562,16.263 L21.875,16.954 L22.351,17.460 C22.943,18.028 23.284,18.814 23.284,19.642 L23.284,26.743 C23.277,27.987 22.276,28.986 21.044,28.993 L19.751,28.993 C18.512,28.993 17.511,27.987 17.498,26.743 L17.498,25.915 L5.721,25.915 L5.721,26.749 C5.728,27.987 4.734,28.993 3.502,29.000 L2.209,29.000 C2.202,29.000 2.202,29.000 2.195,29.000 C0.970,28.986 -0.010,27.980 0.003,26.749 L0.003,19.827 C-0.004,18.944 0.378,18.103 1.038,17.528 L1.719,16.878 L3.400,12.945 C3.754,12.104 4.578,11.557 5.483,11.557 L13.284,11.557 C12.923,10.579 12.739,9.546 12.733,8.506 L12.733,3.923 C12.733,3.670 12.876,3.437 13.093,3.321 L18.982,0.085 C19.186,-0.031 19.424,-0.031 19.628,0.078 L25.666,3.314 C25.884,3.430 26.020,3.663 26.000,3.923 L26.000,8.417 C26.007,11.639 24.319,14.621 21.562,16.263 ZM18.866,26.743 C18.873,27.235 19.274,27.625 19.758,27.625 L21.051,27.625 C21.534,27.625 21.929,27.228 21.929,26.743 L21.929,25.764 C21.650,25.874 21.351,25.922 21.051,25.915 L18.866,25.915 L18.866,26.743 ZM1.371,26.743 C1.371,27.228 1.732,27.625 2.216,27.625 L3.509,27.625 C3.992,27.618 4.373,27.221 4.367,26.743 L4.367,25.915 L2.216,25.915 C1.930,25.922 1.637,25.874 1.371,25.764 L1.371,26.743 ZM1.950,18.541 C1.943,18.548 1.943,18.548 1.936,18.554 C1.576,18.876 1.365,19.334 1.371,19.820 L1.371,23.699 C1.371,23.712 1.371,23.726 1.371,23.739 C1.385,24.198 1.759,24.560 2.216,24.547 L21.051,24.547 C21.534,24.547 21.929,24.184 21.929,23.699 L21.929,19.635 C21.929,19.184 21.739,18.753 21.412,18.438 C21.398,18.424 21.385,18.418 21.378,18.411 L20.963,17.980 L2.556,17.980 L1.950,18.541 ZM17.668,16.612 C16.905,16.208 16.204,15.702 15.578,15.107 C14.727,15.203 14.012,15.791 13.754,16.612 L17.668,16.612 ZM5.483,12.918 C5.122,12.925 4.795,13.144 4.653,13.486 L3.325,16.612 L12.351,16.612 C12.583,15.394 13.420,14.389 14.564,13.944 C14.326,13.616 14.108,13.274 13.910,12.918 L5.483,12.918 ZM24.652,4.326 L19.288,1.453 L14.094,4.320 L14.094,8.492 C14.101,11.577 15.925,14.368 18.737,15.600 L19.288,15.839 L19.935,15.558 C22.800,14.348 24.659,11.529 24.652,8.410 L24.652,4.326 ZM18.893,10.893 C18.886,10.900 18.880,10.900 18.873,10.907 C18.859,10.914 18.852,10.928 18.845,10.928 C18.839,10.928 18.825,10.934 18.818,10.941 C18.805,10.941 18.798,10.948 18.791,10.955 C18.784,10.962 18.777,10.962 18.764,10.968 C18.750,10.975 18.743,10.975 18.737,10.982 C18.730,10.989 18.716,10.989 18.709,10.996 C18.696,10.996 18.689,11.003 18.682,11.003 C18.669,11.009 18.662,11.016 18.648,11.016 C18.641,11.016 18.634,11.023 18.628,11.023 C18.614,11.023 18.600,11.030 18.587,11.030 C18.580,11.037 18.573,11.037 18.566,11.037 C18.553,11.037 18.532,11.044 18.519,11.044 C18.512,11.044 18.512,11.044 18.505,11.044 C18.485,11.044 18.464,11.044 18.444,11.044 C18.437,11.044 18.430,11.044 18.423,11.044 C18.403,11.044 18.389,11.044 18.369,11.044 C18.362,11.044 18.349,11.037 18.342,11.037 C18.328,11.037 18.315,11.030 18.301,11.030 C18.294,11.030 18.280,11.023 18.274,11.023 C18.260,11.016 18.246,11.016 18.233,11.009 C18.226,11.003 18.212,11.003 18.206,10.996 C18.192,10.996 18.178,10.989 18.165,10.982 C18.158,10.982 18.144,10.975 18.138,10.968 C18.124,10.962 18.117,10.955 18.104,10.948 C18.097,10.941 18.083,10.934 18.076,10.928 C18.063,10.921 18.049,10.914 18.042,10.907 C18.035,10.900 18.022,10.893 18.015,10.886 C18.008,10.879 18.001,10.866 17.988,10.859 C17.974,10.852 17.967,10.838 17.961,10.831 C17.954,10.825 17.947,10.818 17.940,10.811 L16.354,8.944 C16.109,8.656 16.143,8.225 16.429,7.979 C16.715,7.733 17.144,7.767 17.389,8.054 L18.546,9.416 L21.732,6.810 C22.024,6.570 22.453,6.611 22.692,6.905 C22.930,7.199 22.889,7.630 22.596,7.870 L18.893,10.893 ZM20.976,22.768 C20.976,23.144 20.670,23.452 20.295,23.452 L16.620,23.452 C16.245,23.452 15.939,23.144 15.939,22.768 L15.939,20.237 C15.939,19.861 16.245,19.553 16.620,19.553 L20.295,19.553 C20.670,19.553 20.976,19.861 20.976,20.237 L20.976,22.768 ZM19.615,20.921 L17.300,20.921 L17.300,22.084 L19.615,22.084 L19.615,20.921 ZM14.006,23.384 L9.268,23.384 C8.887,23.384 8.587,23.076 8.587,22.700 C8.587,22.324 8.893,22.016 9.268,22.016 L14.006,22.016 C14.380,22.016 14.686,22.324 14.686,22.700 C14.686,23.076 14.380,23.384 14.006,23.384 ZM14.006,21.468 L9.268,21.468 C8.887,21.468 8.587,21.161 8.587,20.784 C8.587,20.408 8.893,20.100 9.268,20.100 L14.006,20.100 C14.380,20.100 14.686,20.408 14.686,20.784 C14.686,21.161 14.380,21.468 14.006,21.468 ZM6.613,23.452 L2.937,23.452 C2.563,23.452 2.256,23.144 2.256,22.768 L2.256,20.237 C2.256,19.861 2.563,19.553 2.937,19.553 L6.613,19.553 C6.987,19.553 7.294,19.861 7.294,20.237 L7.294,22.768 C7.294,23.144 6.987,23.452 6.613,23.452 ZM5.932,20.921 L3.618,20.921 L3.618,22.084 L5.932,22.084 L5.932,20.921 Z"/>
</svg>