<svg 
 xmlns="http://www.w3.org/2000/svg"
 xmlns:xlink="http://www.w3.org/1999/xlink"
 width="30px" height="30px">
<path fill-rule="evenodd"  fill="rgb(0, 0, 0)"
 d="M15.000,30.000 C6.723,30.000 -0.000,23.277 -0.000,15.000 C-0.000,6.723 6.723,-0.000 15.000,-0.000 C23.277,-0.000 30.000,6.723 30.000,15.000 C30.000,23.277 23.277,30.000 15.000,30.000 ZM15.000,1.301 C7.446,1.301 1.301,7.446 1.301,15.000 C1.301,22.554 7.446,28.699 15.000,28.699 C22.554,28.699 28.699,22.554 28.699,15.000 C28.699,7.446 22.554,1.301 15.000,1.301 ZM22.807,18.253 L18.253,18.253 L18.253,22.807 C18.253,23.169 17.964,23.458 17.602,23.458 L12.398,23.458 C12.036,23.458 11.747,23.169 11.747,22.807 L11.747,18.253 L7.193,18.253 C6.831,18.253 6.542,17.964 6.542,17.602 L6.542,12.397 C6.542,12.036 6.831,11.747 7.193,11.747 L11.747,11.747 L11.747,7.193 C11.747,6.831 12.036,6.542 12.398,6.542 L17.602,6.542 C17.964,6.542 18.253,6.831 18.253,7.193 L18.253,11.747 L22.807,11.747 C23.132,11.747 23.422,12.036 23.458,12.397 L23.458,17.602 C23.458,17.964 23.169,18.253 22.807,18.253 ZM22.193,13.048 L17.638,13.048 C17.277,13.048 16.988,12.759 16.988,12.397 L16.988,7.843 L13.048,7.843 L13.048,12.397 C13.048,12.759 12.759,13.048 12.398,13.048 L7.843,13.048 L7.843,16.952 L12.398,16.952 C12.759,16.952 13.048,17.241 13.048,17.602 L13.048,22.156 L16.952,22.156 L16.952,17.602 C16.952,17.241 17.241,16.952 17.602,16.952 L22.157,16.952 L22.193,16.952 L22.193,13.048 Z"/>
</svg>