<svg 
 xmlns="http://www.w3.org/2000/svg"
 xmlns:xlink="http://www.w3.org/1999/xlink"
 width="41px" height="46px">
<path fill-rule="evenodd"  fill="rgb(7, 50, 154)"
 d="M39.025,23.418 C37.976,28.480 36.122,32.856 33.515,36.428 C30.245,40.909 25.784,44.118 20.256,45.965 C20.187,45.988 20.116,46.000 20.044,46.000 C19.973,46.000 19.901,45.988 19.833,45.965 C14.305,44.118 9.844,40.909 6.573,36.428 C3.966,32.856 2.113,28.479 1.063,23.418 C-0.714,14.844 0.417,7.372 0.466,7.058 C0.518,6.730 0.799,6.489 1.129,6.489 C9.074,6.489 19.594,0.192 19.699,0.128 C19.912,-0.001 20.177,-0.001 20.390,0.128 C20.495,0.191 31.015,6.489 38.960,6.489 C39.290,6.489 39.571,6.730 39.622,7.058 C39.672,7.372 40.803,14.844 39.025,23.418 ZM38.370,7.827 C34.976,7.712 30.868,6.612 26.149,4.553 C23.176,3.256 20.886,1.975 20.044,1.488 C19.203,1.975 16.913,3.256 13.940,4.553 C9.221,6.612 5.114,7.712 1.719,7.827 C1.495,9.721 0.921,16.153 2.385,23.181 C3.398,28.043 5.175,32.237 7.667,35.646 C10.727,39.832 14.891,42.847 20.044,44.613 C25.205,42.845 29.373,39.823 32.434,35.629 C34.926,32.215 36.702,28.014 37.712,23.143 C39.168,16.120 38.594,9.716 38.370,7.827 ZM34.585,24.254 C34.537,24.254 34.488,24.249 34.439,24.238 C34.077,24.157 33.849,23.796 33.930,23.433 C35.177,17.805 34.752,12.593 34.561,10.920 C31.855,10.806 28.598,9.926 24.867,8.298 C22.562,7.293 20.768,6.298 20.044,5.882 C19.320,6.298 17.527,7.293 15.222,8.298 C11.491,9.926 8.233,10.806 5.527,10.920 C5.438,11.702 5.296,13.257 5.299,15.252 C5.299,15.624 4.999,15.927 4.629,15.927 C4.628,15.927 4.628,15.927 4.628,15.927 C4.258,15.927 3.958,15.626 3.957,15.253 C3.953,12.238 4.261,10.237 4.274,10.154 C4.325,9.825 4.606,9.583 4.936,9.583 C11.250,9.583 19.615,4.573 19.699,4.522 C19.912,4.394 20.177,4.394 20.390,4.522 C20.474,4.573 28.845,9.583 35.153,9.583 C35.483,9.583 35.764,9.825 35.815,10.154 C35.857,10.416 36.803,16.669 35.239,23.726 C35.170,24.040 34.893,24.254 34.585,24.254 ZM28.123,29.003 L28.123,31.394 C28.123,31.767 27.822,32.069 27.452,32.069 L12.637,32.069 C12.267,32.069 11.966,31.767 11.966,31.394 L11.966,29.003 C11.966,25.656 14.302,22.691 17.458,21.585 C16.470,20.810 15.834,19.602 15.834,18.248 L15.834,16.716 L15.834,15.185 C15.834,12.850 17.723,10.951 20.044,10.951 C22.366,10.951 24.255,12.850 24.255,15.185 L24.255,16.716 L24.255,18.248 C24.255,19.602 23.618,20.810 22.631,21.585 C25.787,22.691 28.123,25.656 28.123,29.003 ZM22.914,15.185 C22.914,14.787 22.833,14.408 22.688,14.063 C22.252,13.028 21.231,12.300 20.044,12.300 C18.858,12.300 17.837,13.028 17.401,14.063 C17.256,14.408 17.175,14.787 17.176,15.185 L17.176,15.185 L17.176,16.003 C19.331,15.747 20.127,14.311 20.135,14.295 C20.260,14.063 20.509,13.924 20.770,13.942 C21.032,13.960 21.260,14.130 21.353,14.377 C21.374,14.431 21.830,15.570 22.914,15.932 L22.914,15.185 ZM22.914,18.248 L22.914,17.324 C21.806,17.112 21.072,16.409 20.633,15.805 C20.001,16.434 18.896,17.198 17.175,17.360 L17.175,18.248 C17.175,19.798 18.397,21.065 19.923,21.130 C19.960,21.129 19.998,21.127 20.035,21.127 C20.041,21.127 20.048,21.127 20.054,21.127 C20.091,21.127 20.128,21.129 20.166,21.130 C21.692,21.065 22.914,19.798 22.914,18.248 ZM20.361,24.584 L19.728,24.584 L18.950,27.981 L20.044,28.988 L21.139,27.981 L20.361,24.584 ZM20.841,22.539 C20.790,22.532 20.739,22.524 20.687,22.518 C20.687,22.518 20.686,22.518 20.686,22.518 C20.586,22.506 20.486,22.498 20.385,22.491 C20.370,22.490 20.354,22.489 20.338,22.488 C20.271,22.484 20.203,22.482 20.136,22.480 C20.105,22.480 20.075,22.482 20.044,22.482 C20.014,22.482 19.983,22.480 19.953,22.480 C19.885,22.482 19.818,22.483 19.750,22.488 C19.735,22.489 19.719,22.490 19.703,22.491 C19.603,22.498 19.503,22.506 19.403,22.518 C19.402,22.518 19.402,22.518 19.401,22.518 C19.350,22.524 19.299,22.532 19.247,22.539 L19.603,23.235 L20.485,23.235 L20.841,22.539 ZM22.184,22.865 L21.604,23.999 L22.534,28.062 C22.589,28.298 22.512,28.547 22.334,28.711 L20.497,30.400 C20.369,30.518 20.207,30.578 20.044,30.578 C19.882,30.578 19.720,30.518 19.592,30.400 L17.755,28.711 C17.577,28.547 17.500,28.298 17.554,28.062 L18.485,23.999 L17.905,22.865 C16.960,23.197 16.075,23.732 15.337,24.437 C14.029,25.688 13.308,27.309 13.308,29.003 L13.308,30.720 L26.781,30.720 L26.781,29.003 C26.781,27.309 26.060,25.688 24.751,24.438 C24.013,23.732 23.129,23.198 22.184,22.865 ZM4.667,17.158 C5.037,17.134 5.356,17.417 5.379,17.789 C5.680,22.608 6.778,26.827 8.642,30.329 C11.137,35.016 14.972,38.278 20.044,40.027 C23.316,38.899 26.092,37.130 28.301,34.767 C30.570,32.339 32.275,29.253 33.369,25.597 C33.475,25.239 33.850,25.038 34.204,25.145 C34.559,25.252 34.760,25.628 34.654,25.985 C33.500,29.844 31.691,33.109 29.278,35.691 C26.868,38.270 23.833,40.183 20.256,41.379 C20.187,41.402 20.116,41.413 20.044,41.413 C19.973,41.413 19.901,41.402 19.833,41.379 C14.319,39.536 10.156,36.033 7.459,30.966 C5.503,27.292 4.353,22.887 4.040,17.873 C4.017,17.501 4.298,17.181 4.667,17.158 Z"/>
</svg>