<svg 
 xmlns="http://www.w3.org/2000/svg"
 xmlns:xlink="http://www.w3.org/1999/xlink"
 width="30px" height="30px">
<path fill-rule="evenodd"  fill="rgb(0, 0, 0)"
 d="M29.629,26.019 C28.507,29.134 25.074,30.750 21.959,29.628 C21.900,29.840 21.708,29.987 21.488,29.989 L0.500,29.989 C0.224,29.989 -0.000,29.765 -0.000,29.489 L-0.000,3.498 C-0.000,3.223 0.224,2.999 0.500,2.999 L7.031,2.999 C7.282,1.279 8.756,0.002 10.494,-0.000 L11.493,-0.000 C13.231,0.002 14.705,1.278 14.956,2.999 L21.488,2.999 C21.764,2.999 21.987,3.223 21.987,3.498 L21.987,18.343 C22.629,18.113 23.305,17.995 23.986,17.993 C24.679,17.993 25.367,18.113 26.020,18.348 C29.134,19.469 30.750,22.903 29.629,26.019 ZM4.497,3.998 L0.999,3.998 L0.999,28.989 L20.679,28.989 C20.252,28.704 19.864,28.366 19.523,27.983 C19.511,27.984 19.501,27.990 19.489,27.990 L2.498,27.990 C2.222,27.990 1.999,27.766 1.999,27.490 L1.999,5.498 C1.999,5.222 2.222,4.998 2.498,4.998 L4.497,4.998 L4.497,3.998 ZM16.490,3.998 L14.492,3.998 C14.216,3.998 13.992,3.775 13.992,3.498 C13.990,2.119 12.873,1.001 11.493,0.999 L10.494,0.999 C9.115,1.001 7.997,2.119 7.995,3.498 C7.995,3.775 7.772,3.998 7.496,3.998 L5.497,3.998 L5.497,5.998 L16.490,5.998 L16.490,3.998 ZM16.990,6.997 L4.997,6.997 C4.721,6.997 4.497,6.773 4.497,6.497 L4.497,5.998 L2.998,5.998 L2.998,26.990 L18.801,26.990 C17.655,25.024 17.728,22.577 18.989,20.683 L18.989,5.998 L17.490,5.998 L17.490,6.497 C17.490,6.773 17.266,6.997 16.990,6.997 ZM20.988,3.998 L17.490,3.998 L17.490,4.998 L19.489,4.998 C19.765,4.998 19.988,5.222 19.988,5.498 L19.988,19.533 C20.296,19.256 20.631,19.012 20.988,18.804 L20.988,3.998 ZM23.986,18.993 C21.226,18.993 18.989,21.231 18.989,23.991 C18.989,26.751 21.226,28.989 23.986,28.989 C26.745,28.986 28.980,26.750 28.983,23.991 C28.983,21.231 26.746,18.993 23.986,18.993 ZM25.985,25.990 L25.985,27.490 C25.985,27.766 25.761,27.990 25.485,27.990 L22.487,27.990 C22.211,27.990 21.987,27.766 21.987,27.490 L21.987,25.990 L20.488,25.990 C20.212,25.990 19.988,25.766 19.988,25.491 L19.988,22.492 C19.988,22.216 20.212,21.992 20.488,21.992 L21.987,21.992 L21.987,20.492 C21.987,20.216 22.211,19.993 22.487,19.993 L25.485,19.993 C25.761,19.993 25.985,20.216 25.985,20.492 L25.985,21.992 L27.484,21.992 C27.760,21.992 27.984,22.216 27.984,22.492 L27.984,25.491 C27.984,25.766 27.760,25.990 27.484,25.990 L25.985,25.990 ZM26.984,22.991 L25.485,22.991 C25.209,22.991 24.986,22.768 24.986,22.492 L24.986,20.992 L22.987,20.992 L22.987,22.492 C22.987,22.768 22.763,22.991 22.487,22.991 L20.988,22.991 L20.988,24.991 L22.487,24.991 C22.763,24.991 22.987,25.215 22.987,25.491 L22.987,26.990 L24.986,26.990 L24.986,25.491 C24.986,25.215 25.209,24.991 25.485,24.991 L26.984,24.991 L26.984,22.991 ZM11.200,24.446 C11.069,24.506 10.918,24.506 10.787,24.446 C7.264,22.839 5.002,19.325 4.997,15.453 L4.997,14.494 C4.996,14.235 5.193,14.018 5.451,13.995 L6.966,13.858 C8.901,13.682 10.400,11.402 10.493,10.972 C10.493,10.963 10.493,10.954 10.493,10.945 C10.505,10.679 10.727,10.472 10.993,10.479 C11.264,10.485 11.483,10.701 11.493,10.971 C11.586,11.402 13.085,13.681 15.020,13.857 L16.536,13.995 C16.794,14.018 16.991,14.235 16.990,14.494 L16.990,15.453 C16.985,19.325 14.723,22.839 11.200,24.446 ZM15.991,14.951 L14.929,14.855 C13.224,14.699 11.735,13.289 10.994,12.165 C10.253,13.289 8.763,14.699 7.058,14.855 L5.996,14.951 L5.996,15.453 C6.000,18.852 7.939,21.951 10.994,23.441 C14.048,21.951 15.988,18.850 15.991,15.451 L15.991,14.951 ZM11.270,21.910 L10.744,21.060 C12.747,19.922 13.986,17.798 13.992,15.494 L14.991,15.494 C14.988,18.145 13.569,20.592 11.270,21.910 Z"/>
</svg>