<svg 
 xmlns="http://www.w3.org/2000/svg"
 xmlns:xlink="http://www.w3.org/1999/xlink"
 width="23px" height="31px">
<path fill-rule="evenodd"  fill="rgb(0, 0, 0)"
 d="M22.553,20.721 C22.307,20.721 22.107,20.517 22.107,20.267 L22.107,15.759 C20.262,16.798 18.800,16.349 17.897,15.785 C16.998,15.224 16.462,14.440 16.334,14.239 C16.331,14.243 16.328,14.248 16.325,14.253 C16.144,14.541 15.877,14.865 15.549,15.172 C14.119,16.529 12.368,16.777 10.561,15.759 L10.561,20.709 C10.561,24.064 12.583,26.968 15.458,28.140 C15.687,28.233 15.798,28.497 15.706,28.730 C15.615,28.963 15.355,29.076 15.126,28.983 C14.039,28.540 13.055,27.874 12.229,27.030 L12.229,29.424 C12.229,30.293 11.534,31.000 10.680,31.000 L9.683,31.000 C9.252,31.000 8.861,30.820 8.580,30.530 C8.299,30.820 7.909,31.000 7.478,31.000 L6.481,31.000 C5.626,31.000 4.931,30.293 4.931,29.424 L4.931,12.654 C4.003,14.093 3.518,15.746 3.518,17.503 C3.518,18.514 2.698,19.319 1.711,19.290 C0.766,19.263 -0.000,18.443 0.003,17.462 C0.017,12.781 2.447,9.769 3.894,8.390 C4.597,7.720 5.515,7.352 6.480,7.352 C6.903,7.352 10.246,7.352 10.680,7.352 C11.584,7.352 12.448,7.695 13.115,8.319 C14.159,9.297 15.546,10.940 16.376,13.306 C16.663,13.320 16.920,13.474 17.070,13.724 C17.088,13.754 17.546,14.501 18.363,15.011 C19.391,15.652 20.518,15.629 21.712,14.942 C22.288,14.612 23.000,15.035 23.000,15.707 L23.000,20.267 C23.000,20.517 22.800,20.721 22.553,20.721 ZM12.229,15.434 C12.606,15.503 12.973,15.498 13.331,15.418 C13.112,14.479 12.744,13.593 12.229,12.772 L12.229,15.434 ZM7.795,8.260 L8.330,8.906 C8.461,9.064 8.700,9.064 8.831,8.906 L9.365,8.260 L7.795,8.260 ZM12.510,8.987 C12.009,8.518 11.359,8.260 10.680,8.260 L10.533,8.260 L9.514,9.491 C9.027,10.079 8.134,10.080 7.646,9.491 L6.628,8.260 L6.480,8.260 C5.743,8.260 5.041,8.541 4.505,9.053 C3.162,10.332 0.909,13.125 0.896,17.465 C0.894,17.957 1.271,18.369 1.735,18.382 C2.232,18.394 2.624,17.992 2.624,17.503 C2.624,15.081 3.461,12.837 5.043,11.014 C5.314,10.701 5.824,10.896 5.824,11.314 L5.824,29.424 C5.824,29.792 6.119,30.092 6.480,30.092 L7.477,30.092 C7.839,30.092 8.134,29.792 8.134,29.424 L8.134,20.092 C8.134,19.841 8.334,19.638 8.580,19.638 C8.827,19.638 9.027,19.841 9.027,20.092 L9.027,29.424 C9.027,29.792 9.321,30.092 9.683,30.092 L10.680,30.092 C11.042,30.092 11.336,29.792 11.336,29.424 L11.336,29.424 L11.336,25.963 C10.245,24.428 9.667,22.610 9.667,20.709 L9.667,15.722 L9.667,15.707 C9.667,15.061 10.328,14.640 10.896,14.912 C10.902,14.915 11.144,15.051 11.336,15.140 L11.336,11.404 C11.336,10.984 11.851,10.788 12.121,11.107 C13.124,12.291 13.811,13.627 14.170,15.084 C14.724,14.767 15.242,14.269 15.583,13.747 C14.819,11.482 13.499,9.914 12.510,8.987 ZM8.580,6.204 C6.898,6.204 5.530,4.812 5.530,3.102 C5.530,1.391 6.898,-0.000 8.580,-0.000 C10.262,-0.000 11.630,1.391 11.630,3.102 C11.630,4.812 10.262,6.204 8.580,6.204 ZM8.580,0.908 C7.391,0.908 6.423,1.892 6.423,3.102 C6.423,4.311 7.391,5.295 8.580,5.295 C9.770,5.295 10.737,4.311 10.737,3.102 C10.737,1.892 9.770,0.908 8.580,0.908 ZM15.309,23.768 L13.666,22.020 C13.496,21.839 13.502,21.551 13.681,21.378 C13.859,21.205 14.141,21.211 14.312,21.393 L15.635,22.801 L19.384,18.914 C19.556,18.734 19.839,18.732 20.015,18.907 C20.191,19.083 20.194,19.370 20.021,19.549 L15.950,23.772 C15.774,23.955 15.483,23.953 15.309,23.768 ZM17.209,28.140 C19.624,27.156 21.442,24.917 21.954,22.297 C22.002,22.051 22.237,21.892 22.479,21.940 C22.721,21.989 22.878,22.228 22.830,22.474 C22.270,25.338 20.321,27.850 17.542,28.983 C17.313,29.076 17.053,28.963 16.961,28.730 C16.869,28.497 16.980,28.233 17.209,28.140 Z"/>
</svg>