<svg 
 xmlns="http://www.w3.org/2000/svg"
 xmlns:xlink="http://www.w3.org/1999/xlink"
 width="30px" height="29px">
<path fill-rule="evenodd"  fill="rgb(0, 0, 0)"
 d="M29.442,8.402 C29.023,9.121 28.390,9.686 27.634,10.016 L26.195,10.647 C26.069,10.701 25.927,10.701 25.802,10.647 L24.363,10.016 C23.607,9.686 22.974,9.121 22.555,8.402 C22.192,7.783 22.000,7.074 22.000,6.353 L22.000,1.231 C22.000,1.196 22.003,1.163 22.010,1.129 C22.065,0.854 22.329,0.676 22.600,0.732 C23.604,0.939 24.648,0.754 25.524,0.215 L25.743,0.080 C25.757,0.073 25.771,0.066 25.786,0.061 C25.800,0.054 25.815,0.048 25.830,0.042 C25.941,-0.000 26.063,-0.000 26.174,0.042 C26.189,0.048 26.203,0.054 26.218,0.061 C26.232,0.066 26.247,0.073 26.260,0.080 L26.480,0.215 C27.356,0.753 28.399,0.938 29.403,0.732 L29.400,0.732 C29.433,0.725 29.466,0.722 29.500,0.722 C29.776,0.722 30.000,0.950 30.000,1.231 L30.000,6.353 C29.999,7.075 29.807,7.783 29.442,8.402 ZM25.502,1.369 C24.719,1.731 23.859,1.885 23.002,1.815 L23.002,6.355 C23.002,6.892 23.145,7.420 23.415,7.881 C23.728,8.416 24.198,8.836 24.760,9.081 L25.502,9.406 L25.502,1.369 ZM29.000,1.815 C28.143,1.885 27.283,1.731 26.500,1.369 L26.500,9.406 L27.243,9.081 C27.805,8.836 28.276,8.416 28.588,7.881 C28.859,7.420 29.002,6.892 29.002,6.355 L29.000,1.815 ZM22.000,13.740 L26.300,13.740 C26.472,13.740 26.633,13.829 26.724,13.978 L29.923,19.143 C29.973,19.224 30.000,19.318 30.000,19.414 L30.000,26.457 C30.000,26.737 29.776,26.965 29.500,26.965 L27.431,26.965 C27.330,27.360 27.114,27.715 26.811,27.983 L29.500,27.983 C29.776,27.983 30.000,28.210 30.000,28.491 C30.000,28.772 29.776,29.000 29.500,29.000 L0.500,29.000 C0.224,29.000 -0.000,28.772 -0.000,28.491 C-0.000,28.210 0.224,27.983 0.500,27.983 L9.191,27.983 C8.888,27.715 8.672,27.360 8.571,26.965 L6.500,26.965 C6.224,26.965 6.000,26.737 6.000,26.457 L6.000,25.439 L1.500,25.439 C1.224,25.439 1.000,25.212 1.000,24.931 C1.000,24.650 1.224,24.422 1.500,24.422 L6.000,24.422 L6.000,19.335 L0.500,19.335 C0.224,19.335 -0.000,19.108 -0.000,18.827 C-0.000,18.546 0.224,18.318 0.500,18.318 L6.000,18.318 L6.000,13.740 L4.000,13.740 C3.724,13.740 3.500,13.512 3.500,13.232 C3.500,12.951 3.724,12.723 4.000,12.723 L6.000,12.723 L6.000,11.197 C6.000,10.916 6.224,10.688 6.500,10.688 L21.500,10.688 C21.776,10.688 22.000,10.916 22.000,11.197 L22.000,13.740 ZM27.431,25.948 L29.000,25.948 L29.000,19.561 L26.024,14.758 L22.000,14.758 L22.000,25.948 L23.573,25.948 C23.753,25.229 24.304,24.668 25.011,24.485 C26.076,24.209 27.160,24.864 27.431,25.948 ZM25.500,27.474 C26.052,27.474 26.500,27.018 26.500,26.457 C26.500,25.895 26.052,25.439 25.500,25.439 C24.948,25.439 24.500,25.895 24.500,26.457 C24.500,27.018 24.948,27.474 25.500,27.474 ZM10.500,27.474 C11.052,27.474 11.500,27.018 11.500,26.457 C11.500,25.895 11.052,25.439 10.500,25.439 C9.948,25.439 9.500,25.895 9.500,26.457 C9.500,27.018 9.948,27.474 10.500,27.474 ZM21.000,11.706 L7.000,11.706 L7.000,25.948 L8.573,25.948 C8.753,25.229 9.304,24.668 10.011,24.485 C11.076,24.209 12.160,24.864 12.431,25.948 L21.000,25.948 L21.000,11.706 ZM12.429,26.965 C12.328,27.360 12.112,27.715 11.809,27.983 L24.193,27.983 C23.890,27.715 23.674,27.360 23.573,26.965 L12.429,26.965 ZM12.357,23.244 C12.165,23.446 11.849,23.451 11.650,23.256 L9.650,21.221 L9.650,21.222 C9.650,21.222 9.649,21.221 9.649,21.221 C9.454,21.022 9.454,20.700 9.650,20.502 L11.650,18.467 C11.841,18.292 12.131,18.292 12.321,18.468 C12.526,18.657 12.541,18.978 12.355,19.186 L11.209,20.353 L15.500,20.353 C15.776,20.353 16.000,20.580 16.000,20.861 C16.000,21.142 15.776,21.370 15.500,21.370 L11.209,21.370 L12.357,22.537 C12.544,22.734 12.544,23.047 12.357,23.244 ZM15.845,19.199 C15.646,19.394 15.330,19.388 15.138,19.186 C14.946,18.984 14.951,18.662 15.150,18.467 L16.295,17.301 L12.000,17.301 C11.724,17.301 11.500,17.073 11.500,16.792 C11.500,16.511 11.724,16.284 12.000,16.284 L16.295,16.284 L15.150,15.117 C14.954,14.918 14.954,14.596 15.149,14.397 C15.345,14.198 15.661,14.198 15.857,14.397 L17.857,16.432 C17.857,16.432 17.857,16.432 17.858,16.432 C18.053,16.631 18.052,16.953 17.857,17.152 L15.857,19.186 C15.853,19.190 15.849,19.195 15.845,19.199 ZM23.000,19.335 L23.000,16.284 C23.000,16.002 23.224,15.775 23.500,15.775 L25.250,15.775 C25.428,15.775 25.593,15.872 25.682,16.029 L27.432,19.081 C27.476,19.158 27.499,19.245 27.499,19.334 C27.499,19.615 27.276,19.844 27.000,19.844 L23.500,19.844 C23.224,19.844 23.000,19.616 23.000,19.335 ZM24.000,18.827 L26.131,18.827 L24.965,16.792 L24.000,16.792 L24.000,18.827 ZM23.500,20.861 L24.500,20.861 C24.776,20.861 25.000,21.089 25.000,21.370 C25.000,21.651 24.776,21.879 24.500,21.879 L23.500,21.879 C23.224,21.879 23.000,21.651 23.000,21.370 C23.000,21.089 23.224,20.861 23.500,20.861 ZM2.000,13.740 L1.500,13.740 C1.224,13.740 1.000,13.512 1.000,13.232 C1.000,12.951 1.224,12.723 1.500,12.723 L2.000,12.723 C2.276,12.723 2.500,12.951 2.500,13.232 C2.500,13.512 2.276,13.740 2.000,13.740 Z"/>
</svg>