<svg 
 xmlns="http://www.w3.org/2000/svg"
 xmlns:xlink="http://www.w3.org/1999/xlink"
 width="26px" height="26px">
<path fill-rule="evenodd"  fill="rgb(0, 0, 0)"
 d="M25.589,8.560 C25.349,8.575 25.143,8.394 25.128,8.154 C25.049,7.356 23.638,6.500 21.663,6.500 C19.767,6.500 18.406,7.286 18.219,8.055 C18.223,8.146 18.223,8.210 18.223,8.233 C18.223,8.472 18.029,8.666 17.789,8.666 C17.784,8.666 17.780,8.664 17.776,8.664 C17.771,8.664 17.767,8.666 17.762,8.666 C17.523,8.666 17.329,8.472 17.329,8.233 C17.329,7.415 15.475,6.500 12.995,6.500 C10.514,6.500 8.660,7.415 8.660,8.233 C8.658,8.250 8.654,8.267 8.650,8.284 C8.627,8.500 8.445,8.665 8.227,8.666 C8.210,8.664 8.193,8.661 8.176,8.656 C7.960,8.633 7.795,8.451 7.794,8.233 C7.794,7.413 6.370,6.500 4.326,6.500 C2.351,6.500 0.940,7.356 0.861,8.154 C0.835,8.385 0.634,8.556 0.402,8.544 C0.169,8.530 -0.010,8.333 -0.004,8.100 C0.115,3.710 6.080,-0.000 13.022,-0.000 C19.935,-0.000 25.874,3.710 25.995,8.100 C26.010,8.339 25.828,8.545 25.589,8.560 ZM1.305,6.350 C2.234,5.857 3.274,5.610 4.326,5.633 C5.610,5.578 6.873,5.973 7.897,6.749 C8.100,5.108 8.691,2.518 10.411,1.062 C6.130,1.690 2.525,3.785 1.305,6.350 ZM13.006,0.869 C10.013,1.178 9.081,4.605 8.790,6.673 C9.722,6.036 11.223,5.633 12.995,5.633 C14.785,5.633 16.300,6.044 17.225,6.693 C16.938,4.627 16.010,1.180 13.006,0.869 ZM15.601,1.060 C17.318,2.509 17.911,5.087 18.115,6.729 C19.137,5.967 20.389,5.580 21.663,5.633 C22.715,5.610 23.756,5.857 24.686,6.352 C23.470,3.783 19.872,1.682 15.601,1.060 ZM3.459,11.266 L9.527,11.266 L9.527,9.967 C9.527,9.248 10.109,8.666 10.827,8.666 L15.162,8.666 C15.880,8.666 16.462,9.248 16.462,9.967 L16.462,11.266 L22.530,11.266 C23.248,11.266 23.830,11.848 23.830,12.566 L23.830,24.700 C23.830,25.418 23.248,26.000 22.530,26.000 L3.459,26.000 C2.741,26.000 2.159,25.418 2.159,24.700 L2.159,12.566 C2.159,11.848 2.741,11.266 3.459,11.266 ZM15.595,9.967 C15.595,9.727 15.401,9.533 15.162,9.533 L10.827,9.533 C10.588,9.533 10.394,9.727 10.394,9.967 L10.394,9.967 L10.394,11.266 L15.595,11.266 L15.595,9.967 ZM22.963,12.566 C22.963,12.327 22.769,12.133 22.530,12.133 L20.835,12.133 C21.021,13.222 21.874,14.075 22.963,14.261 L22.963,12.566 ZM22.530,25.133 C22.769,25.133 22.963,24.939 22.963,24.700 L22.963,24.700 L22.963,23.005 C21.874,23.191 21.021,24.044 20.835,25.133 L22.530,25.133 ZM3.026,24.700 C3.026,24.939 3.220,25.133 3.459,25.133 L3.459,25.133 L5.154,25.133 C4.968,24.044 4.115,23.191 3.026,23.006 L3.026,24.700 ZM3.026,22.130 C4.595,22.330 5.830,23.565 6.030,25.133 L19.959,25.133 C20.159,23.565 21.394,22.330 22.963,22.130 L22.963,22.130 L22.963,15.137 C21.394,14.937 20.159,13.702 19.959,12.133 L6.030,12.133 C5.830,13.702 4.595,14.937 3.026,15.137 L3.026,22.130 ZM3.026,14.261 C4.115,14.075 4.968,13.222 5.154,12.133 L3.459,12.133 C3.220,12.133 3.026,12.327 3.026,12.566 L3.026,12.566 L3.026,14.261 ZM9.256,19.192 L10.943,19.244 L11.796,18.326 L8.899,16.376 C8.643,16.220 8.519,15.915 8.595,15.625 C8.673,15.289 8.964,15.046 9.308,15.028 C9.333,15.027 9.358,15.028 9.383,15.031 L14.122,15.648 L15.349,14.233 C15.586,13.991 15.912,13.858 16.251,13.866 L17.185,13.873 C17.736,13.876 18.184,14.318 18.196,14.870 L18.196,14.870 L18.196,15.817 C18.205,16.142 18.079,16.457 17.849,16.687 L16.409,17.920 L17.029,22.636 C17.033,22.663 17.034,22.690 17.032,22.717 C17.010,23.060 16.765,23.348 16.430,23.425 C16.126,23.500 15.810,23.362 15.658,23.088 L13.720,20.237 L12.789,21.095 L12.821,22.841 C12.851,23.259 12.593,23.645 12.195,23.778 C12.093,23.814 11.985,23.833 11.877,23.833 C11.565,23.833 11.273,23.676 11.101,23.416 L10.773,22.902 L10.160,23.234 C9.766,23.447 9.279,23.375 8.962,23.058 C8.646,22.741 8.576,22.253 8.791,21.860 L9.148,21.224 L8.660,20.907 C8.289,20.669 8.133,20.205 8.285,19.791 C8.428,19.387 8.832,19.138 9.256,19.192 ZM9.100,20.086 C9.086,20.123 9.102,20.165 9.137,20.185 L9.961,20.717 C10.152,20.842 10.213,21.094 10.102,21.292 L9.548,22.280 C9.538,22.301 9.533,22.323 9.534,22.346 C9.534,22.384 9.549,22.421 9.577,22.447 C9.622,22.492 9.691,22.502 9.747,22.472 L10.715,21.948 C10.915,21.839 11.165,21.904 11.287,22.095 L11.826,22.940 C11.847,22.964 11.881,22.972 11.911,22.959 C11.940,22.946 11.958,22.916 11.956,22.884 L11.919,20.915 C11.917,20.792 11.968,20.673 12.059,20.589 L13.500,19.258 C13.593,19.173 13.719,19.132 13.844,19.146 C13.969,19.161 14.082,19.229 14.153,19.333 L16.096,22.193 L15.526,17.860 C15.516,17.821 15.511,17.781 15.512,17.741 C15.514,17.618 15.567,17.501 15.659,17.420 L17.263,16.050 C17.311,15.986 17.335,15.906 17.329,15.825 L17.329,15.825 L17.329,14.880 C17.326,14.802 17.262,14.739 17.183,14.738 L16.240,14.733 C16.147,14.728 16.055,14.760 15.986,14.823 L14.627,16.395 C14.520,16.518 14.352,16.571 14.194,16.531 L9.842,15.965 L12.702,17.887 C12.808,17.958 12.877,18.071 12.891,18.197 C12.906,18.323 12.864,18.449 12.778,18.542 L11.443,19.975 C11.359,20.067 11.238,20.118 11.112,20.113 L9.197,20.052 C9.125,20.046 9.110,20.054 9.100,20.084 L9.100,20.086 Z"/>
</svg>