<svg xmlns="http://www.w3.org/2000/svg" width="60" height="62" viewBox="0 0 60 62"><g><g><path d="M38.904 39.066a1.915 1.915 0 0 0-.077 2.625l6.427 7.223c.245.276.324.662.207 1.012A8.488 8.488 0 0 0 48.1 59.19l1.179.983-1.324 1.59-1.18-.985a10.878 10.878 0 0 1-1.106-1.062A5.173 5.173 0 0 1 41.376 62H20.688a5.175 5.175 0 0 1-5.172-5.167V24.8h2.069v28.933h23.791V55.8H17.585v1.033c0 1.712 1.39 3.1 3.103 3.1h20.688a3.094 3.094 0 0 0 2.941-2.139 10.503 10.503 0 0 1-.995-7.94l-3.845-4.321a3.105 3.105 0 0 1-2.239.967H23.791v-2.067h13.447c.343-.003.661-.175.852-.459l-.811-.91a3.972 3.972 0 0 1-.49-.698H24.827c-.475 0-.889-.322-1.004-.783l-2.069-8.267a1.034 1.034 0 0 1 1.003-1.283h15.745l.837-3.35c.115-.46.529-.783 1.004-.783h2.069v2.067H41.15l-.834 3.35-.796 3.176a3.83 3.83 0 0 1 .822-.053c1.082.018 2.11.48 2.842 1.276l1.295 1.405V16.533h-7.24v-2.067h7.24v-1.033c0-1.712-1.389-3.1-3.103-3.1h-4.138V8.266h4.138a5.176 5.176 0 0 1 5.172 5.167v27.9h-.025l6.993 7.565-1.519 1.403-10.331-11.18a1.895 1.895 0 0 0-1.369-.615 2.026 2.026 0 0 0-1.393.56zm-11.63-2.9l-.259-2.066h-2.933l.517 2.066zm.517 4.134l-.258-2.067h-2.417l.517 2.067zm4.655-2.067h-2.828l.259 2.067h2.31zm.517-4.133h-3.862l.258 2.066h3.346zm3.965 4.133h-2.396l-.26 2.067h2.002a3.97 3.97 0 0 1 .654-2.067zm1.054-4.133H35.05l-.259 2.066h2.675zM25.86 47.533a2.068 2.068 0 1 1-2.069 2.067c0-1.142.926-2.067 2.07-2.067zm10.344 0a2.068 2.068 0 1 1-2.069 2.067c0-1.142.927-2.067 2.07-2.067zm-1.034-43.4V18.6a4.135 4.135 0 0 1-4.138 4.133H4.138A4.135 4.135 0 0 1 0 18.6V4.133A4.135 4.135 0 0 1 4.138 0h26.894a4.136 4.136 0 0 1 4.138 4.133zm-2.07 0a2.068 2.068 0 0 0-2.068-2.067H4.138a2.068 2.068 0 0 0-2.07 2.067V18.6c0 1.141.927 2.066 2.07 2.066h26.894a2.068 2.068 0 0 0 2.069-2.066zM4.139 5.166h18.619v2.067H4.137zm26.48 10.873a3.105 3.105 0 0 1-4.249 1.1c-.467.277-1 .424-1.543.427a3.102 3.102 0 0 1-3.104-3.1c0-1.712 1.39-3.1 3.104-3.1a3.063 3.063 0 0 1 1.543.43 3.106 3.106 0 0 1 3.146 0 3.098 3.098 0 0 1 1.102 4.243zm-4.758-1.573a1.034 1.034 0 1 0-2.068.002 1.034 1.034 0 0 0 2.068-.002zm3.103 0c0-.57-.463-1.033-1.034-1.033a1.069 1.069 0 0 0-.183.027c.243.65.243 1.365 0 2.014.06.014.121.023.183.026.571 0 1.034-.463 1.034-1.034zm-24.825-3.1h2.068v2.067H4.138zm4.137 0h2.069v2.067H8.275zm4.138 0h2.069v2.067h-2.07zm4.137 0h2.07v2.067h-2.07zM4.138 15.5h14.481v2.066H4.138zM59.995 44.8V62h-2.068V44.8a5.147 5.147 0 0 0-1.385-3.518l-8.695-9.593 1.533-1.387 8.69 9.583a7.189 7.189 0 0 1 1.925 4.915zM34.71 27.726l-3.103 2.067c-.347.232-.8.232-1.148 0l-3.103-2.067 1.148-1.72 1.495.996V24.8h2.068v2.202l1.495-.995z"/></g></g></svg>