<svg xmlns="http://www.w3.org/2000/svg" width="60" height="60" viewBox="0 0 60 60"><g><g><path d="M3.636 32.818v-9.09c0-.546.364-.91.91-.91h28.09a.91.91 0 0 1 .91.91v9.09c0 .546-.364.91-.91.91H4.546c-.546 0-.91-.364-.91-.91zm1.818-.909h26.273v-7.273H5.454zm4.273 4.273V40c0 .545-.363.91-.909.91H5.091c-.546 0-.91-.364-.91-.91v-3.727c0-.546.364-.91.91-.91h3.818c.455 0 .91.364.818.819zm-1.818 2.91V37.09h-1.91v2zm1.818 4.817v3.818c0 .546-.363.91-.909.91H5.091c-.546 0-.91-.364-.91-.91V43.91c0-.545.364-.909.91-.909h3.818c.455 0 .91.364.818.91zM7.91 46.82v-2h-1.91v2zm1.818 4.726v3.819c0 .545-.363.909-.909.909H5.091c-.546 0-.91-.364-.91-.91v-3.818c0-.545.364-.909.91-.909h3.818c.455 0 .91.455.818.91zm-1.818 2.91v-2h-1.91v2zm9.636-18.273V40c0 .545-.363.91-.909.91h-3.818c-.545 0-.909-.364-.909-.91v-3.727c0-.546.364-.91.91-.91h3.817c.455 0 .91.364.91.819zm-1.818.909h-2v2h2zm1.818 6.818v3.818c0 .546-.363.91-.909.91h-3.818c-.545 0-.909-.364-.909-.91V43.91c0-.545.364-.909.91-.909h3.817c.455 0 .91.364.91.91zm-1.818.91h-2v2h2zm1.818 6.726v3.819c0 .545-.363.909-.909.909h-3.818c-.545 0-.909-.364-.909-.91v-3.818c0-.545.364-.909.91-.909h3.817c.455 0 .91.455.91.91zm-1.818.91h-2v2h2zm9.546-16.273V40c0 .545-.364.91-.91.91h-3.727c-.545 0-.909-.364-.909-.91v-3.727c0-.546.364-.91.91-.91h3.727c.454 0 .909.364.909.819zm-1.818.909h-1.91v2h1.91zm1.818 6.818v3.818c0 .546-.364.91-.91.91h-3.727c-.545 0-.909-.364-.909-.91V43.91c0-.545.364-.909.91-.909h3.727c.454 0 .909.364.909.91zm-1.818.91h-1.91v2h1.91zm1.818 6.726v3.819c0 .545-.364.909-.91.909h-3.727c-.545 0-.909-.364-.909-.91v-3.818c0-.545.364-.909.91-.909h3.727c.454 0 .909.455.909.91zm-1.818.91h-1.91v2h1.91zm9.454-16.273V40c0 .545-.364.91-.909.91h-3.727c-.546 0-.91-.364-.91-.91v-3.727c0-.546.364-.91.91-.91H32c.545 0 .91.364.909.819zm-1.818.909h-1.91v2h1.91zm1.818 6.818v11.455c0 .545-.364.909-.909.909h-3.727c-.546 0-.91-.364-.91-.91V43.91c0-.545.364-.909.91-.909H32c.545 0 .91.364.909.91zm-1.818.91h-1.91v9.636h1.91zM60 16.453v42.637c0 .545-.364.91-.91.91H.91C.364 60 0 59.636 0 59.09V19.818c0-.545.363-.91.909-.91h9.818v-18c0-.545.364-.908.91-.908h31.272c.182 0 .455.09.636.272l16.182 15.546c.182.091.273.455.273.636zm-16.182-1h13L43.818 3zm-8.454 42.728V20.727H1.818v37.455zm22.818-40.819H42.909c-.545 0-.91-.363-.91-.908V1.818H12.546v17.09h23.728c.545 0 .909.365.909.91v38.364h21V17.363zM36.636 6.636c0 .545-.363.91-.909.91H17.455c-.546 0-.91-.365-.91-.91s.364-.909.91-.909h18.272c.546 0 .91.364.91.909zm0 5.364c0 .545-.363.909-.909.909H17.455c-.546 0-.91-.364-.91-.91 0-.545.364-.908.91-.908h18.272c.546 0 .91.363.91.909zm19.91 35.182c0 4.91-3.91 8.818-8.728 8.818s-8.727-4-8.727-8.818c0-4.91 3.909-8.818 8.727-8.818 4.818 0 8.727 3.909 8.727 8.818zm-1.819-.09c0-3.91-3.09-7.001-6.909-7.001-3.818 0-6.909 3.09-6.909 7 0 3.909 3.09 7 6.91 7 3.817 0 6.908-3.091 6.908-7zM51.273 49c0 .728-.273 1.364-.818 1.818-.546.546-1.182.818-2.091.818v.91h-.818v-.91c-1.182-.181-2.273-.636-3.182-1.454l.909-1.09c.636.635 1.454 1 2.182 1.09v-2.546c-.91-.181-1.637-.545-2.091-.909-.455-.454-.637-1-.637-1.727 0-.727.273-1.364.818-1.818.455-.545 1.182-.818 2-.818v-.637h.819v.637c.909.09 1.818.454 2.636 1l-.818 1.182c-.546-.364-1.182-.637-1.818-.727v2.454c1 .182 1.727.545 2.181 1 .455.363.728 1 .728 1.727zm-3.728-3v-2.272c-.363.09-.727.181-.909.363-.272.182-.363.455-.363.727 0 .364.09.546.272.727.182.182.546.273 1 .455zm2.091 3c0-.272-.09-.545-.272-.727a7.854 7.854 0 0 0-1.091-.454v2.363c.454 0 .727-.182 1-.364.272-.181.363-.454.363-.818zM41.91 31l10-11.727a3.247 3.247 0 0 1 2.454-1.091c.819 0 1.546.272 2.091.727 1.364 1.182 1.546 3.182.364 4.546l-10 11.727c0 .09-.09.09-.09.09l-.092.092-7.182 4.909c-.363.182-.818.182-1.09-.091a.867.867 0 0 1-.273-1.09l3.727-7.91c0-.091-.09-.091 0-.091.091 0 .091-.09.09-.09zm2 .455l2.09 1.818 9.456-11c.454-.636.454-1.455-.182-2-.546-.455-1.455-.364-1.91.182zM42.999 33l-1.817 3.818 3.454-2.364z"/></g></g></svg>