<svg xmlns="http://www.w3.org/2000/svg" width="59" height="60" viewBox="0 0 59 60"><g><g><path d="M37.273 23c0 .552-.452 1-1.008 1h-25.18a1.004 1.004 0 0 1-1.007-1c0-.552.451-1 1.007-1h25.18c.556 0 1.008.448 1.008 1zm-27.195-8c0-.552.451-1 1.007-1h10.072c.556 0 1.007.448 1.007 1s-.45 1-1.007 1H11.085a1.004 1.004 0 0 1-1.007-1zm27.195 16c0 .552-.452 1-1.008 1h-25.18a1.004 1.004 0 0 1-1.007-1c0-.552.451-1 1.007-1h25.18c.556 0 1.008.448 1.008 1zm-8.058 8c0 .552-.451 1-1.007 1H11.085a1.004 1.004 0 0 1-1.007-1c0-.552.451-1 1.007-1h17.123c.556 0 1.007.448 1.007 1zm-18.13 9a1.004 1.004 0 0 1-1.007-1c0-.552.451-1 1.007-1h14.101c.556 0 1.007.448 1.007 1s-.451 1-1.007 1zM2.02 58h27.195v2H.005V0h32.649l14.69 14.586V34H45.33V16h-14.1V2H2.02zm31.224-44h10.662L33.244 3.414zM58.99 39.272c0 .798-.313 1.547-.881 2.11L42.609 56.775l-7.835 2.12-.523.52a1.008 1.008 0 0 1-1.415.006l-.02.005.005-.02A.993.993 0 0 1 32.827 58l.522-.52 2.137-7.778 15.502-15.39c1.136-1.128 3.116-1.128 4.252 0l2.87 2.85a2.95 2.95 0 0 1 .881 2.11zM42.085 54.465l10.317-10.243-4.274-4.243-10.317 10.243zm-6.399 2.109l4.46-1.207-3.244-3.22zm21.29-17.302a.975.975 0 0 0-.29-.696l-2.87-2.85a1.02 1.02 0 0 0-1.404 0l-2.86 2.839 4.274 4.243 2.86-2.84a.98.98 0 0 0 .29-.696z"/></g></g></svg>