<svg xmlns="http://www.w3.org/2000/svg" width="47" height="60" viewBox="0 0 47 60"><g><g><path d="M47 14.46V57.93c0 .866-.88 1.71-1.92 1.976-.052.013-.102.033-.156.043-.163.032-.33.05-.497.05H2.572c-.167 0-.333-.018-.496-.05-.054-.01-.104-.03-.156-.043C.88 59.64 0 58.797 0 57.93V3.027C0 .947 1.334 0 2.572 0h30.312c.517 0 1.023.208 1.387.569l.805.797L45.62 11.81l.805.798c.479.474.575 1.06.575 1.853zM34.467 3.688v8.726h8.81zm9.96 54.243c.075 0 .141-.027.207-.05a.475.475 0 0 0 .277-.43V42.415H2.09v15.038c0 .19.114.352.277.428.065.024.132.051.206.051zm.484-17.587V14.46l-.001-.037c-.132.034-.266.06-.407.06H32.378V2.472c0-.14.026-.274.06-.404H2.572c-.449 0-.483.733-.483.958v37.317zm-27.834 6.968c.214.401.321.851.321 1.351 0 .529-.09 1.006-.271 1.436-.182.429-.434.79-.757 1.082a3.422 3.422 0 0 1-1.171.678c-.457.16-.962.24-1.514.24h-1.27v3.763H10.7V45.438h3.027c.447 0 .89.07 1.328.212.437.141.83.354 1.178.637.347.283.63.623.844 1.025zm-1.337 1.35c0-.17-.024-.365-.071-.587a1.687 1.687 0 0 0-.293-.636 1.727 1.727 0 0 0-.621-.509c-.268-.136-.62-.205-1.057-.205h-1.285v4.13h1.571a1.9 1.9 0 0 0 .621-.107c.205-.07.393-.186.564-.346.172-.16.309-.384.414-.672.104-.287.157-.643.157-1.068zm11.838-.121c.219.588.328 1.195.328 1.817 0 .858-.092 1.591-.278 2.2-.186.608-.421 1.117-.707 1.528-.287.41-.607.733-.965.969a4.802 4.802 0 0 1-1.035.53 4.259 4.259 0 0 1-.913.227c-.277.033-.482.05-.615.05H19.41V45.438h3.17c.884 0 1.662.14 2.334.417.672.278 1.228.649 1.671 1.11.443.463.773.988.993 1.576zm-1.471 1.776c0-.433-.052-.863-.157-1.287a2.745 2.745 0 0 0-.607-1.152c-.3-.345-.707-.623-1.22-.835-.514-.212-1.18-.319-2-.319h-1v7.892h1.7c1.162 0 2-.367 2.513-1.103.514-.734.77-1.8.77-3.196zm4.284-4.879h6.582v1.287h-4.84v3.282h4.398v1.16h-4.398v4.695h-1.742zm5.985-20.532c.335.645.197 1.396-.407 2.235-.581.805-1.383 1.231-2.32 1.231-1.27 0-2.747-.794-4.397-2.363-2.963.613-6.424 1.708-9.22 2.919-.874 1.835-1.71 3.313-2.49 4.398-1.068 1.486-1.991 2.18-2.905 2.18-.364 0-.712-.118-1.01-.338-1.087-.808-1.234-1.707-1.165-2.32.19-1.682 2.293-3.446 6.251-5.242 1.571-3.41 3.066-7.61 3.957-11.12-1.043-2.248-2.056-5.163-1.317-6.873.259-.599.582-1.058 1.184-1.257.24-.078.84-.177 1.061-.177.527 0 .99.67 1.317 1.085.308.389 1.007 1.213-.39 7.036 1.408 2.88 3.403 5.814 5.315 7.823 1.369-.246 2.547-.37 3.507-.37 1.636 0 2.627.378 3.029 1.153zm-18.96 5.298c-2.232 1.243-3.142 2.264-3.206 2.84-.01.093-.039.344.45.715.155-.049 1.064-.46 2.756-3.555zm5.908-16.83c.992-2.189-.055-3.342-.1-3.327-.102.034-1.389 1.817.1 3.327zm4.526 11.162c-1.41-1.623-2.819-3.648-3.992-5.735a73.308 73.308 0 0 1-2.793 7.824 52.43 52.43 0 0 1 6.785-2.09zm6.929 1.165c-.129-.068-.299-.203-1.227-.203-.528 0-1.19.022-1.892.111.851.649 1.06.977 1.616.977.244 0 .942-.01 1.264-.456.155-.216.216-.355.239-.429z"/></g></g></svg>