<svg 
 xmlns="http://www.w3.org/2000/svg"
 xmlns:xlink="http://www.w3.org/1999/xlink"
 width="29px" height="29px">
<path fill-rule="evenodd"  fill="rgb(255, 182, 0)"
 d="M14.500,29.000 C6.492,29.000 0.000,22.508 0.000,14.500 C0.000,6.492 6.492,0.000 14.500,0.000 C22.508,0.000 29.000,6.492 29.000,14.500 C29.000,22.508 22.508,29.000 14.500,29.000 ZM14.500,1.757 C7.462,1.757 1.757,7.462 1.757,14.499 C1.757,21.537 7.462,27.242 14.500,27.242 C21.537,27.242 27.242,21.537 27.242,14.499 C27.242,7.462 21.537,1.757 14.500,1.757 ZM21.250,19.000 L7.750,19.000 C7.336,19.000 7.000,18.664 7.000,18.250 C7.000,17.836 7.336,17.500 7.750,17.500 L21.250,17.500 C21.664,17.500 22.000,17.836 22.000,18.250 C22.000,18.664 21.664,19.000 21.250,19.000 ZM21.250,15.250 L7.750,15.250 C7.336,15.250 7.000,14.914 7.000,14.500 C7.000,14.086 7.336,13.750 7.750,13.750 L21.250,13.750 C21.664,13.750 22.000,14.086 22.000,14.500 C22.000,14.914 21.664,15.250 21.250,15.250 ZM21.250,11.500 L7.750,11.500 C7.336,11.500 7.000,11.164 7.000,10.750 C7.000,10.336 7.336,10.000 7.750,10.000 L21.250,10.000 C21.664,10.000 22.000,10.336 22.000,10.750 C22.000,11.164 21.664,11.500 21.250,11.500 Z"/>
</svg>
