<svg 
 xmlns="http://www.w3.org/2000/svg"
 xmlns:xlink="http://www.w3.org/1999/xlink"
 width="22px" height="22px">
<path fill-rule="evenodd"  fill="rgb(255, 255, 255)"
 d="M21.783,20.877 L16.443,15.530 C17.876,13.882 18.743,11.730 18.743,9.379 C18.743,4.204 14.538,-0.001 9.374,-0.001 C4.204,-0.001 0.004,4.209 0.004,9.379 C0.004,14.550 4.209,18.760 9.374,18.760 C11.722,18.760 13.871,17.892 15.517,16.458 L20.857,21.804 C20.984,21.931 21.155,21.999 21.320,21.999 C21.486,21.999 21.656,21.936 21.783,21.804 C22.036,21.550 22.036,21.131 21.783,20.877 ZM1.315,9.379 C1.315,4.930 4.930,1.316 9.369,1.316 C13.812,1.316 17.422,4.936 17.422,9.379 C17.422,13.823 13.812,17.448 9.369,17.448 C4.930,17.448 1.315,13.828 1.315,9.379 Z"/>
</svg>